:SAMPLES-PER-SECOND 30
:FULLY-SPECIFIED
:DEGREES
612
root  57.1012 38.3236 -4.2712 -5.56633 -13.1399 9.32468
RightUpLeg  16.1536 3.29352 -9.96221
RightLeg  31.6937 13.2103 8.45102
RightFoot  -7.96088 -0.0866855 0.0522564
RightToes  -4.65663e-010 0 -3.6325e-017
Spine  0.457491 2.5023 4.05929
Spine1  7.09282 4.65399 -8.55295
HEad  -8.921 -0.779117 0.24422
LeftShoulder1  8.75274 -11.6522 -50.403
LeftArm  -7.22365 27.7746 -23.3726
LeftForeArm  26.7113 -6.35887 -5.53113
LeftHand  -0.244104 0.0205437 5.32207
RightShoulder  6.38521 9.83431 41.6332
RightArm  -3.92653 -3.67362 33.5698
RightForeArm  13.3218 9.68092 6.99027
RightHand  -1.11772 2.90466 -15.7922
LeftUpLeg  -18.2857 8.10889 -6.31155
LeftLeg  19.2326 0.855494 0.71241
LeftFoot  2.26499 0.413323 -3.59335
LeftToes  -7.27628e-011 -1.6005e-012 -1.37987e-011
613
root  57.1349 38.4191 -3.10332 -6.24995 -16.2406 10.3077
RightUpLeg  9.97493 4.60841 -11.9032
RightLeg  42.2192 11.0723 10.2574
RightFoot  2.81564 -0.676921 5.59911
RightToes  -4.65663e-010 0 -3.6325e-017
Spine  1.46909 2.68033 1.98033
Spine1  6.90213 4.66314 -8.5495
HEad  -9.53598 -0.568668 0.169906
LeftShoulder1  8.81586 -11.8676 -50.0599
LeftArm  -7.42336 24.4538 -21.757
LeftForeArm  25.7891 -6.10246 -5.47302
LeftHand  -0.244104 0.0205437 5.32207
RightShoulder  6.37348 9.91705 41.2746
RightArm  -9.91108 -4.4676 34.8898
RightForeArm  13.8548 3.80242 5.71177
RightHand  -1.04189 2.11584 -16.2314
LeftUpLeg  -16.4301 10.8778 -6.92828
LeftLeg  20.5352 1.35088 0.901871
LeftFoot  -1.31592 0.358197 -3.97783
LeftToes  -7.27628e-011 -1.6005e-012 -1.37987e-011
614
root  57.1489 38.5287 -2.05131 -7.03407 -19.5342 11.0489
RightUpLeg  2.988 5.71065 -13.1232
RightLeg  51.6077 6.61221 8.44449
RightFoot  11.7011 -1.6597 8.65577
RightToes  -4.65663e-010 0 -3.6325e-017
Spine  3.09049 2.49118 0.0629198
Spine1  6.30248 4.1766 -8.4979
HEad  -10.4774 0.610433 -0.305202
LeftShoulder1  8.81936 -12.0333 -49.5497
LeftArm  -8.10478 21.5892 -20.0751
LeftForeArm  24.5279 -6.92285 -5.34692
LeftHand  -0.244104 0.0205437 5.32207
RightShoulder  6.35317 9.99871 40.863
RightArm  -11.4222 -5.31324 35.8056
RightForeArm  12.4171 1.39789 5.13905
RightHand  -0.887522 1.00352 -16.1712
LeftUpLeg  -14.2507 14.5243 -7.16267
LeftLeg  20.8611 0.941845 0.604962
LeftFoot  -3.31383 0.28728 -3.80684
LeftToes  -7.27628e-011 -1.6005e-012 -1.37987e-011
615
root  57.1441 38.8072 -0.959751 -7.52792 -21.8747 10.8335
RightUpLeg  -3.04289 4.99839 -13.1236
RightLeg  58.121 1.86686 2.80976
RightFoot  14.0581 -1.74603 8.15255
RightToes  -4.65663e-010 0 -3.6325e-017
Spine  4.65657 1.55244 -1.07098
Spine1  5.39903 2.87591 -7.37849
HEad  -11.6191 2.37334 -1.08352
LeftShoulder1  8.87432 -12.1827 -49.385
LeftArm  -9.0433 18.8324 -17.8893
LeftForeArm  23.0964 -7.87755 -5.16408
LeftHand  -0.244104 0.0205437 5.32207
RightShoulder  6.33815 9.97298 40.8433
RightArm  -9.44929 -6.38358 35.4349
RightForeArm  12.8013 2.56645 5.78821
RightHand  -0.779376 0.505298 -15.405
LeftUpLeg  -11.1049 15.835 -6.1669
LeftLeg  19.6416 1.81631 0.177801
LeftFoot  -4.4049 0.244263 -3.59819
LeftToes  -7.27628e-011 -1.6005e-012 -1.37987e-011
616
root  57.1069 39.1779 0.151868 -7.46536 -23.5704 9.66376
RightUpLeg  -8.14903 2.59741 -11.7789
RightLeg  61.4585 -1.16666 -2.78134
RightFoot  11.0661 -0.966195 5.22179
RightToes  -4.65663e-010 0 -3.6325e-017
Spine  5.74105 0.437363 -1.2215
Spine1  4.79443 1.42749 -5.60462
HEad  -12.6926 3.63719 -1.78627
LeftShoulder1  8.9038 -12.2853 -49.2284
LeftArm  -10.0775 15.5078 -15.7345
LeftForeArm  21.9217 -8.14555 -4.97414
LeftHand  -0.244104 0.0205437 5.32207
RightShoulder  6.20983 9.71754 40.7834
RightArm  -5.28312 -8.06581 34.279
RightForeArm  14.2805 6.58994 6.91299
RightHand  -0.756155 0.773095 -14.3253
LeftUpLeg  -7.48112 15.2267 -4.31077
LeftLeg  17.3517 3.98128 -0.248515
LeftFoot  -5.53507 0.226861 -3.82484
LeftToes  -7.27628e-011 -1.6005e-012 -1.37987e-011
617
root  57.0103 39.4348 1.20702 -7.17159 -25.5797 8.5032
RightUpLeg  -12.849 0.214778 -9.82627
RightLeg  61.4774 -2.12861 -4.77286
RightFoot  7.38552 -0.412111 2.84324
RightToes  -4.65663e-010 0 -3.6325e-017
Spine  6.41005 -0.203698 -1.48898
Spine1  4.6486 0.407264 -4.02409
HEad  -13.2799 4.07033 -2.1186
LeftShoulder1  8.7642 -12.2559 -48.5429
LeftArm  -11.0724 11.9871 -14.1789
LeftForeArm  20.7753 -8.46326 -4.88596
LeftHand  -0.244104 0.0205437 5.32207
RightShoulder  5.9562 9.3406 40.2203
RightArm  0.883167 -10.1974 33.3025
RightForeArm  13.0256 11.7481 7.38506
RightHand  -0.725844 0.922325 -13.4377
LeftUpLeg  -4.30709 13.5412 -2.41712
LeftLeg  15.3801 7.46936 -1.03657
LeftFoot  -6.69087 0.210323 -4.18553
LeftToes  -7.27628e-011 -1.6005e-012 -1.37987e-011
618
root  56.8586 39.6084 2.24874 -6.92324 -27.8703 7.63693
RightUpLeg  -16.8866 -1.48153 -7.61353
RightLeg  58.2898 -2.19003 -4.2935
RightFoot  5.70457 -0.247667 1.92387
RightToes  -4.65663e-010 0 -3.6325e-017
Spine  7.01614 -0.624915 -2.061
Spine1  4.41101 -0.398737 -2.63916
HEad  -13.1422 4.23394 -2.02386
LeftShoulder1  8.49959 -12.1226 -47.4667
LeftArm  -11.906 9.21254 -12.8937
LeftForeArm  19.2819 -9.88232 -4.84821
LeftHand  -0.244104 0.0205437 5.32207
RightShoulder  5.74812 9.10925 39.4644
RightArm  8.40859 -12.2623 32.6849
RightForeArm  7.86014 16.27 6.57264
RightHand  -0.660491 0.538165 -13.0143
LeftUpLeg  -1.27398 10.8547 -0.91164
LeftLeg  13.4046 12.0889 -2.17197
LeftFoot  -7.40833 0.195591 -4.39295
LeftToes  -7.27628e-011 -1.6005e-012 -1.37987e-011
619
root  56.675 39.7562 3.29442 -6.75137 -29.9093 6.81351
RightUpLeg  -19.6443 -3.28119 -5.07305
RightLeg  52.1171 -2.57296 -3.90591
RightFoot  4.11861 -0.0899225 0.844298
RightToes  -4.65663e-010 0 -3.6325e-017
Spine  7.93801 -1.21228 -2.40001
Spine1  3.79488 -1.28837 -1.40029
HEad  -12.5425 4.44298 -1.60729
LeftShoulder1  8.29008 -12.0313 -46.5502
LeftArm  -12.5848 7.27648 -11.2023
LeftForeArm  17.8526 -12.1894 -4.63602
LeftHand  -0.244104 0.0205437 5.32207
RightShoulder  5.67542 9.07922 39.0163
RightArm  12.85 -13.8838 31.9444
RightForeArm  3.90791 18.9122 5.76114
RightHand  -0.64934 0.320864 -13.2545
LeftUpLeg  1.93865 8.45457 0.0614956
LeftLeg  11.0306 16.1279 -3.22226
LeftFoot  -8.08064 0.184259 -4.78836
LeftToes  -7.27628e-011 -1.6005e-012 -1.37987e-011
620
root  56.4464 39.7495 4.34211 -6.85842 -31.7656 6.38043
RightUpLeg  -21.0325 -6.10955 -2.59091
RightLeg  43.4293 -3.06266 -3.4115
RightFoot  1.56584 0.0966741 -0.751124
RightToes  -4.65663e-010 0 -3.6325e-017
Spine  8.98986 -1.76719 -2.84469
Spine1  3.19447 -2.07546 -0.654415
HEad  -12.0406 4.37378 -1.09627
LeftShoulder1  8.2036 -12.043 -46.0149
LeftArm  -13.4669 5.49925 -9.0616
LeftForeArm  17.3282 -14.5362 -4.25225
LeftHand  -0.244104 0.0205437 5.32207
RightShoulder  5.62814 9.02954 38.8262
RightArm  13.9136 -14.9209 31.1747
RightForeArm  2.36811 19.7516 5.52325
RightHand  -0.743029 0.824376 -13.9598
LeftUpLeg  4.72888 7.23363 0.289761
LeftLeg  9.765 18.8615 -3.67079
LeftFoot  -9.67009 0.139505 -5.68768
LeftToes  -7.27628e-011 -1.6005e-012 -1.37987e-011
621
root  56.1369 39.5762 5.44047 -7.28899 -33.6927 6.58136
RightUpLeg  -21.3966 -10.9193 -0.0650693
RightLeg  32.6528 -2.54186 -2.23098
RightFoot  0.117342 0.1372 -1.34808
RightToes  -4.65663e-010 0 -3.6325e-017
Spine  9.51307 -2.07343 -3.71095
Spine1  3.08661 -2.56096 -0.202045
HEad  -11.8924 3.7731 -0.711365
LeftShoulder1  8.16735 -12.0781 -45.6982
LeftArm  -14.539 3.60028 -7.02143
LeftForeArm  17.5186 -16.7878 -3.92307
LeftHand  -0.244104 0.0205437 5.32207
RightShoulder  5.52323 8.84704 38.6481
RightArm  12.3547 -15.4968 30.6453
RightForeArm  2.58029 19.0608 5.74618
RightHand  -0.860021 1.52833 -14.5479
LeftUpLeg  7.05857 6.89807 -0.282474
LeftLeg  9.67563 20.9316 -3.4626
LeftFoot  -11.6297 0.0546822 -6.43972
LeftToes  -7.27628e-011 -1.6005e-012 -1.37987e-011
622
root  55.7458 39.4253 6.58262 -7.57745 -35.4027 6.87152
RightUpLeg  -20.6224 -16.1447 2.43718
RightLeg  19.6893 -3.33703 -0.458731
RightFoot  0.278011 0.104525 -1.00657
RightToes  -4.65663e-010 0 -3.6325e-017
Spine  9.30965 -2.27437 -4.47044
Spine1  3.48399 -2.94514 0.634337
HEad  -11.8853 2.79602 -0.572046
LeftShoulder1  8.12974 -12.0791 -45.4773
LeftArm  -15.5775 1.83462 -5.56091
LeftForeArm  17.8531 -19.1743 -3.76213
LeftHand  -0.244104 0.0205437 5.32207
RightShoulder  5.43657 8.67932 38.5566
RightArm  8.22931 -16.0992 30.2281
RightForeArm  4.204 17.1288 6.2888
RightHand  -0.911204 1.78652 -14.862
LeftUpLeg  9.6887 6.71237 -1.1238
LeftLeg  8.52766 22.8712 -3.43939
LeftFoot  -12.6087 0.00593872 -6.33301
LeftToes  -7.27628e-011 -1.6005e-012 -1.37987e-011
623
root  55.2608 39.2662 7.74723 -7.72701 -36.4742 7.18567
RightUpLeg  -18.0128 -12.8181 1.40308
RightLeg  5.12993 -13.5412 4.20377
RightFoot  0.146123 0.132749 -1.31984
RightToes  -4.65663e-010 0 -3.6325e-017
Spine  8.78143 -2.4923 -5.20505
Spine1  3.87867 -3.39574 1.79504
HEad  -11.7314 1.58328 -0.685343
LeftShoulder1  8.0934 -12.0642 -45.3114
LeftArm  -16.769 0.267125 -4.88658
LeftForeArm  18.5284 -21.4212 -3.78411
LeftHand  -0.244104 0.0205437 5.32207
RightShoulder  5.44377 8.65455 38.6999
RightArm  1.94233 -17.171 29.7465
RightForeArm  6.79218 14.3173 6.78357
RightHand  -0.9515 1.8807 -15.3066
LeftUpLeg  12.4357 6.38657 -1.92057
LeftLeg  6.9116 24.2889 -3.79337
LeftFoot  -13.4583 -0.0377148 -6.32088
LeftToes  -7.27628e-011 -1.6005e-012 -1.37987e-011
624
root  54.6534 38.9453 8.96711 -8.30722 -37.0669 7.92545
RightUpLeg  -15.892 -4.64752 -1.36066
RightLeg  -6.10854 -25.201 9.61442
RightFoot  -1.17874 0.123979 -1.45247
RightToes  -4.65663e-010 0 -3.6325e-017
Spine  8.35859 -2.67304 -6.21884
Spine1  3.90999 -3.73832 2.68668
HEad  -11.6085 -0.0935023 -1.33827
LeftShoulder1  8.04774 -12.0471 -45.0969
LeftArm  -17.9328 -1.22341 -5.04742
LeftForeArm  19.407 -23.22 -3.96167
LeftHand  -0.244104 0.0205437 5.32207
RightShoulder  5.49285 8.69686 38.9364
RightArm  -4.68904 -18.5044 29.4452
RightForeArm  9.21391 10.9775 6.72036
RightHand  -1.05172 2.33221 -15.935
LeftUpLeg  14.8556 6.42366 -2.64445
LeftLeg  7.02915 24.4841 -3.91291
LeftFoot  -15.3001 -0.163992 -7.36168
LeftToes  -7.27628e-011 -1.6005e-012 -1.37987e-011
